<svg width="20" height="20" viewBox="0 0 20 20" fill="none" xmlns="http://www.w3.org/2000/svg">
<path d="M2.5 18.3333V17.0833H4.58333V16.4583H3.33333V15.2083H4.58333V14.5833H2.5V13.3333H5C5.23611 13.3333 5.43403 13.4132 5.59375 13.5729C5.75347 13.7326 5.83333 13.9305 5.83333 14.1666V15C5.83333 15.2361 5.75347 15.434 5.59375 15.5937C5.43403 15.7534 5.23611 15.8333 5 15.8333C5.23611 15.8333 5.43403 15.9132 5.59375 16.0729C5.75347 16.2326 5.83333 16.4305 5.83333 16.6666V17.5C5.83333 17.7361 5.75347 17.934 5.59375 18.0937C5.43403 18.2534 5.23611 18.3333 5 18.3333H2.5ZM2.5 12.5V10.2083C2.5 9.97218 2.57986 9.77426 2.73958 9.61454C2.89931 9.45482 3.09722 9.37496 3.33333 9.37496H4.58333V8.74996H2.5V7.49996H5C5.23611 7.49996 5.43403 7.57982 5.59375 7.73954C5.75347 7.89926 5.83333 8.09718 5.83333 8.33329V9.79163C5.83333 10.0277 5.75347 10.2257 5.59375 10.3854C5.43403 10.5451 5.23611 10.625 5 10.625H3.75V11.25H5.83333V12.5H2.5ZM3.75 6.66663V2.91663H2.5V1.66663H5V6.66663H3.75ZM7.5 15.8333V14.1666H17.5V15.8333H7.5ZM7.5 10.8333V9.16663H17.5V10.8333H7.5ZM7.5 5.83329V4.16663H17.5V5.83329H7.5Z" fill="black" fill-opacity="0.7"/>
</svg>
