<svg width="28" height="28" viewBox="0 0 28 28" fill="none" xmlns="http://www.w3.org/2000/svg">
<path d="M12.6291 25.6667C12.1041 25.6667 11.6521 25.4917 11.2729 25.1417C10.8937 24.7917 10.6653 24.3639 10.5875 23.8583L10.325 21.9333C10.0722 21.8361 9.834 21.7194 9.61039 21.5833C9.38678 21.4472 9.16803 21.3014 8.95414 21.1458L7.14581 21.9042C6.6597 22.118 6.17359 22.1375 5.68748 21.9625C5.20137 21.7875 4.8222 21.4764 4.54998 21.0292L3.17914 18.6375C2.90692 18.1903 2.82914 17.7139 2.94581 17.2083C3.06248 16.7028 3.32498 16.2847 3.73331 15.9542L5.27914 14.7875C5.2597 14.6514 5.24998 14.5201 5.24998 14.3937V13.6062C5.24998 13.4799 5.2597 13.3486 5.27914 13.2125L3.73331 12.0458C3.32498 11.7153 3.06248 11.2972 2.94581 10.7917C2.82914 10.2861 2.90692 9.80972 3.17914 9.36249L4.54998 6.97083C4.8222 6.52361 5.20137 6.21249 5.68748 6.03749C6.17359 5.86249 6.6597 5.88194 7.14581 6.09583L8.95414 6.85416C9.16803 6.69861 9.39164 6.55277 9.62498 6.41666C9.85831 6.28055 10.0916 6.16388 10.325 6.06666L10.5875 4.14166C10.6653 3.63611 10.8937 3.20833 11.2729 2.85833C11.6521 2.50833 12.1041 2.33333 12.6291 2.33333H15.3708C15.8958 2.33333 16.3479 2.50833 16.7271 2.85833C17.1062 3.20833 17.3347 3.63611 17.4125 4.14166L17.675 6.06666C17.9278 6.16388 18.1659 6.28055 18.3896 6.41666C18.6132 6.55277 18.8319 6.69861 19.0458 6.85416L20.8541 6.09583C21.3403 5.88194 21.8264 5.86249 22.3125 6.03749C22.7986 6.21249 23.1778 6.52361 23.45 6.97083L24.8208 9.36249C25.093 9.80972 25.1708 10.2861 25.0541 10.7917C24.9375 11.2972 24.675 11.7153 24.2666 12.0458L22.7208 13.2125C22.7403 13.3486 22.75 13.4799 22.75 13.6062V14.3937C22.75 14.5201 22.7305 14.6514 22.6916 14.7875L24.2375 15.9542C24.6458 16.2847 24.9083 16.7028 25.025 17.2083C25.1416 17.7139 25.0639 18.1903 24.7916 18.6375L23.3916 21.0292C23.1194 21.4764 22.7403 21.7875 22.2541 21.9625C21.768 22.1375 21.2819 22.118 20.7958 21.9042L19.0458 21.1458C18.8319 21.3014 18.6083 21.4472 18.375 21.5833C18.1416 21.7194 17.9083 21.8361 17.675 21.9333L17.4125 23.8583C17.3347 24.3639 17.1062 24.7917 16.7271 25.1417C16.3479 25.4917 15.8958 25.6667 15.3708 25.6667H12.6291ZM12.8333 23.3333H15.1375L15.5458 20.2417C16.1486 20.0861 16.7076 19.8576 17.2229 19.5562C17.7382 19.2549 18.2097 18.8903 18.6375 18.4625L21.525 19.6583L22.6625 17.675L20.1541 15.7792C20.2514 15.5069 20.3194 15.2201 20.3583 14.9187C20.3972 14.6174 20.4166 14.3111 20.4166 14C20.4166 13.6889 20.3972 13.3826 20.3583 13.0812C20.3194 12.7799 20.2514 12.4931 20.1541 12.2208L22.6625 10.325L21.525 8.34166L18.6375 9.56666C18.2097 9.11944 17.7382 8.74513 17.2229 8.44375C16.7076 8.14236 16.1486 7.91388 15.5458 7.75833L15.1666 4.66666H12.8625L12.4541 7.75833C11.8514 7.91388 11.2923 8.14236 10.7771 8.44375C10.2618 8.74513 9.79026 9.10972 9.36248 9.5375L6.47498 8.34166L5.33748 10.325L7.84581 12.1917C7.74859 12.4833 7.68053 12.775 7.64164 13.0667C7.60276 13.3583 7.58331 13.6694 7.58331 14C7.58331 14.3111 7.60276 14.6125 7.64164 14.9042C7.68053 15.1958 7.74859 15.4875 7.84581 15.7792L5.33748 17.675L6.47498 19.6583L9.36248 18.4333C9.79026 18.8806 10.2618 19.2549 10.7771 19.5562C11.2923 19.8576 11.8514 20.0861 12.4541 20.2417L12.8333 23.3333ZM14.0583 18.0833C15.1861 18.0833 16.1486 17.6847 16.9458 16.8875C17.743 16.0903 18.1416 15.1278 18.1416 14C18.1416 12.8722 17.743 11.9097 16.9458 11.1125C16.1486 10.3153 15.1861 9.91666 14.0583 9.91666C12.9111 9.91666 11.9437 10.3153 11.1562 11.1125C10.3687 11.9097 9.97498 12.8722 9.97498 14C9.97498 15.1278 10.3687 16.0903 11.1562 16.8875C11.9437 17.6847 12.9111 18.0833 14.0583 18.0833Z" fill="white"/>
</svg>
