<svg width="26" height="26" viewBox="0 0 26 26" fill="none" xmlns="http://www.w3.org/2000/svg">
<path d="M17.55 15.6C17.3658 15.6 17.2114 15.5377 17.0868 15.4131C16.9622 15.2886 16.9 15.1342 16.9 14.95V11.05C16.9 10.8659 16.9622 10.7115 17.0868 10.5869C17.2114 10.4623 17.3658 10.4 17.55 10.4H20.15C20.3341 10.4 20.4885 10.4623 20.6131 10.5869C20.7377 10.7115 20.8 10.8659 20.8 11.05V12.025H19.5V11.7H18.2V14.3H19.5V13.975H20.8V14.95C20.8 15.1342 20.7377 15.2886 20.6131 15.4131C20.4885 15.5377 20.3341 15.6 20.15 15.6H17.55ZM11.05 15.6V10.4H14.3C14.4841 10.4 14.6385 10.4623 14.7631 10.5869C14.8877 10.7115 14.95 10.8659 14.95 11.05V12.35C14.95 12.5342 14.8877 12.6886 14.7631 12.8131C14.6385 12.9377 14.4841 13 14.3 13C14.4841 13 14.6385 13.0623 14.7631 13.1869C14.8877 13.3115 14.95 13.4659 14.95 13.65V14.95C14.95 15.1342 14.8877 15.2886 14.7631 15.4131C14.6385 15.5377 14.4841 15.6 14.3 15.6H11.05ZM12.35 12.35H13.65V11.7H12.35V12.35ZM12.35 14.3H13.65V13.65H12.35V14.3ZM5.19995 15.6V11.05C5.19995 10.8659 5.26224 10.7115 5.38683 10.5869C5.51141 10.4623 5.66578 10.4 5.84995 10.4H8.44995C8.63412 10.4 8.78849 10.4623 8.91308 10.5869C9.03766 10.7115 9.09995 10.8659 9.09995 11.05V15.6H7.79995V14.3H6.49995V15.6H5.19995ZM6.49995 13H7.79995V11.7H6.49995V13Z" fill="black" fill-opacity="0.7"/>
</svg>
