<svg width="30" height="30" viewBox="0 0 30 30" fill="none" xmlns="http://www.w3.org/2000/svg">
<rect x="0.5" y="0.5" width="29" height="29" stroke="black" stroke-opacity="0.9"/>
<path d="M26.25 8.75V23.75C26.25 24.4375 26.0052 25.026 25.5156 25.5156C25.026 26.0052 24.4375 26.25 23.75 26.25H6.25C5.5625 26.25 4.97396 26.0052 4.48438 25.5156C3.99479 25.026 3.75 24.4375 3.75 23.75V6.25C3.75 5.5625 3.99479 4.97396 4.48438 4.48438C4.97396 3.99479 5.5625 3.75 6.25 3.75H21.25L26.25 8.75ZM23.75 9.8125L20.1875 6.25H6.25V23.75H23.75V9.8125ZM15 22.5C16.0417 22.5 16.9271 22.1354 17.6562 21.4062C18.3854 20.6771 18.75 19.7917 18.75 18.75C18.75 17.7083 18.3854 16.8229 17.6562 16.0938C16.9271 15.3646 16.0417 15 15 15C13.9583 15 13.0729 15.3646 12.3438 16.0938C11.6146 16.8229 11.25 17.7083 11.25 18.75C11.25 19.7917 11.6146 20.6771 12.3438 21.4062C13.0729 22.1354 13.9583 22.5 15 22.5ZM7.5 12.5H18.75V7.5H7.5V12.5ZM6.25 9.8125V23.75V6.25V9.8125Z" fill="black" fill-opacity="0.9"/>
</svg>
