<svg width="30" height="30" viewBox="0 0 30 30" fill="none" xmlns="http://www.w3.org/2000/svg">
<rect x="0.5" y="0.5" width="29" height="29" stroke="black" stroke-opacity="0.9"/>
<path d="M21.5623 22.5H27.4998V25H19.0623L21.5623 22.5ZM5.93734 25L3.28109 22.3438C2.80193 21.8646 2.55714 21.2708 2.54672 20.5625C2.5363 19.8542 2.77068 19.25 3.24984 18.75L16.9998 4.5C17.479 4 18.0676 3.75 18.7655 3.75C19.4634 3.75 20.0519 3.98958 20.5311 4.46875L26.7498 10.6875C27.229 11.1667 27.4686 11.7604 27.4686 12.4688C27.4686 13.1771 27.229 13.7708 26.7498 14.25L16.2498 25H5.93734ZM15.1873 22.5L24.9998 12.4375L18.8123 6.25L4.99984 20.5L6.99984 22.5H15.1873Z" fill="black" fill-opacity="0.9"/>
</svg>
