<svg width="20" height="20" viewBox="0 0 20 20" fill="none" xmlns="http://www.w3.org/2000/svg">
<path d="M9.77083 13.5H10.4375V12.7917C10.8542 12.7222 11.2014 12.559 11.4792 12.3021C11.7569 12.0451 11.8958 11.6944 11.8958 11.25C11.8958 10.8056 11.7465 10.4722 11.4479 10.25C11.1493 10.0278 10.8125 9.82639 10.4375 9.64583V8.02083C10.5764 8.0625 10.6966 8.13597 10.7981 8.24125C10.8998 8.34667 10.974 8.47458 11.0208 8.625L11.7917 8.29167C11.6806 7.97222 11.5069 7.72917 11.2708 7.5625C11.0347 7.39583 10.7569 7.27778 10.4375 7.20833V6.5H9.77083V7.17875C9.36458 7.2225 9.01993 7.37215 8.73688 7.62771C8.45396 7.88313 8.3125 8.2225 8.3125 8.64583C8.3125 9.07639 8.46875 9.41319 8.78125 9.65625C9.09375 9.89931 9.43056 10.1006 9.79167 10.2602V11.9792C9.55556 11.9097 9.36111 11.7882 9.20833 11.6146C9.05556 11.441 8.94444 11.2361 8.875 11L8.10417 11.3271C8.21528 11.734 8.41576 12.0695 8.70563 12.3335C8.99549 12.5977 9.35056 12.7591 9.77083 12.8177V13.5ZM10.4375 11.9583V10.5208C10.5903 10.5903 10.7292 10.6875 10.8542 10.8125C10.9792 10.9375 11.0417 11.081 11.0417 11.2431C11.0417 11.4283 10.9826 11.5833 10.8646 11.7083C10.7465 11.8333 10.6042 11.9167 10.4375 11.9583ZM9.77083 9.375C9.61278 9.29458 9.4691 9.19812 9.33979 9.08562C9.21049 8.97299 9.14583 8.82986 9.14583 8.65625C9.14583 8.48264 9.20833 8.33681 9.33333 8.21875C9.45833 8.10069 9.60417 8.02778 9.77083 8V9.375ZM7 16C5.32861 16 3.91076 15.4183 2.74646 14.255C1.58215 13.0917 1 11.675 1 10.005C1 8.335 1.58215 6.91667 2.74646 5.75C3.91076 4.58333 5.32861 4 7 4H13C14.6714 4 16.0892 4.58167 17.2535 5.745C18.4178 6.90833 19 8.325 19 9.995C19 11.665 18.4178 13.0833 17.2535 14.25C16.0892 15.4167 14.6714 16 13 16H7ZM7 14.5H13C14.245 14.5 15.3063 14.0613 16.1838 13.1838C17.0613 12.3063 17.5 11.245 17.5 10C17.5 8.755 17.0613 7.69375 16.1838 6.81625C15.3063 5.93875 14.245 5.5 13 5.5H7C5.755 5.5 4.69375 5.93875 3.81625 6.81625C2.93875 7.69375 2.5 8.755 2.5 10C2.5 11.245 2.93875 12.3063 3.81625 13.1838C4.69375 14.0613 5.755 14.5 7 14.5Z" fill="black" fill-opacity="0.7"/>
</svg>
