<svg width="28" height="28" viewBox="0 0 28 28" fill="none" xmlns="http://www.w3.org/2000/svg">
<path d="M14 24.5C13.6695 24.5 13.3924 24.3882 13.1688 24.1646C12.9452 23.941 12.8334 23.6639 12.8334 23.3333C12.8334 23.0028 12.9452 22.7257 13.1688 22.5021C13.3924 22.2785 13.6695 22.1667 14 22.1667H22.1667V13.8833C22.1667 11.6083 21.3743 9.67847 19.7896 8.09375C18.2049 6.50903 16.275 5.71667 14 5.71667C11.725 5.71667 9.79518 6.50903 8.21046 8.09375C6.62574 9.67847 5.83337 11.6083 5.83337 13.8833V19.8333C5.83337 20.1639 5.72157 20.441 5.49796 20.6646C5.27435 20.8882 4.99726 21 4.66671 21C4.02504 21 3.47574 20.7715 3.01879 20.3146C2.56185 19.8576 2.33337 19.3083 2.33337 18.6667V16.3333C2.33337 15.925 2.43546 15.541 2.63962 15.1812C2.84379 14.8215 3.1306 14.5347 3.50004 14.3208L3.58754 12.775C3.7431 11.4528 4.12712 10.2278 4.73962 9.1C5.35212 7.97222 6.12018 6.99028 7.04379 6.15417C7.9674 5.31806 9.02712 4.66667 10.223 4.2C11.4188 3.73333 12.6778 3.5 14 3.5C15.3223 3.5 16.5764 3.73333 17.7625 4.2C18.9487 4.66667 20.0084 5.31319 20.9417 6.13958C21.875 6.96597 22.6431 7.94306 23.2459 9.07083C23.8487 10.1986 24.2375 11.4236 24.4125 12.7458L24.5 14.2625C24.8695 14.4375 25.1563 14.7 25.3605 15.05C25.5646 15.4 25.6667 15.7694 25.6667 16.1583V18.8417C25.6667 19.2306 25.5646 19.6 25.3605 19.95C25.1563 20.3 24.8695 20.5625 24.5 20.7375V22.1667C24.5 22.8083 24.2716 23.3576 23.8146 23.8146C23.3577 24.2715 22.8084 24.5 22.1667 24.5H14ZM10.5 16.3333C10.1695 16.3333 9.8924 16.2215 9.66879 15.9979C9.44518 15.7743 9.33337 15.4972 9.33337 15.1667C9.33337 14.8361 9.44518 14.559 9.66879 14.3354C9.8924 14.1118 10.1695 14 10.5 14C10.8306 14 11.1077 14.1118 11.3313 14.3354C11.5549 14.559 11.6667 14.8361 11.6667 15.1667C11.6667 15.4972 11.5549 15.7743 11.3313 15.9979C11.1077 16.2215 10.8306 16.3333 10.5 16.3333ZM17.5 16.3333C17.1695 16.3333 16.8924 16.2215 16.6688 15.9979C16.4452 15.7743 16.3334 15.4972 16.3334 15.1667C16.3334 14.8361 16.4452 14.559 16.6688 14.3354C16.8924 14.1118 17.1695 14 17.5 14C17.8306 14 18.1077 14.1118 18.3313 14.3354C18.5549 14.559 18.6667 14.8361 18.6667 15.1667C18.6667 15.4972 18.5549 15.7743 18.3313 15.9979C18.1077 16.2215 17.8306 16.3333 17.5 16.3333ZM7.02921 14.525C6.8931 12.4639 7.51532 10.6944 8.89587 9.21667C10.2764 7.73889 11.9973 7 14.0584 7C15.7889 7 17.3105 7.54931 18.623 8.64792C19.9355 9.74653 20.7278 11.1514 21 12.8625C19.2306 12.8431 17.6021 12.3667 16.1146 11.4333C14.6271 10.5 13.4848 9.23611 12.6875 7.64167C12.3764 9.19722 11.7202 10.5826 10.7188 11.7979C9.7174 13.0132 8.48754 13.9222 7.02921 14.525Z" fill="white"/>
</svg>
